<svg xmlns="http://www.w3.org/2000/svg" viewBox="0 0 885.77 138.92"><defs><style>.cls-1{fill:#ef3d4f;}.cls-2{fill:#25282a;}</style></defs><title>Waku - Admin</title><g id="Layer_2" data-name="Layer 2"><g id="Layer_1-2" data-name="Layer 1"><path class="cls-1" d="M131.43,33.83c-1-.2-2-.37-3-.53.57-2,1.39-4.43,0-6.31s-4-1.87-6.07-2.16a50.09,50.09,0,0,0-15.41.21c-4.32.74-8.44,2-11.92,4.8-3.69,2.95-6.29,7.22-8.35,11.4A52.63,52.63,0,0,0,81.9,57c-4.55-1.85-9.18-3.52-13.77-5.27a43.79,43.79,0,0,1-12-6.86c-4.61-3.74-9.59-8.7-10.49-14.82a27,27,0,0,1,.78-9.38,43.56,43.56,0,0,1,3.75-10.5c1.72,1.11,3.55,3.27,5.79,2.77,2.4-.53,2.91-3.48,3.87-5.38a46.24,46.24,0,0,1,9.42,8.35c2.7,3.11,5.07,6.45,5.5,10.66.37,3.62-.55,7.47-1.59,10.91A44,44,0,0,1,68,48.63L74.26,51a50.85,50.85,0,0,0,5.55-12.82A34.06,34.06,0,0,0,81.32,25.9c-.51-5-2.86-9.09-6-13A52.33,52.33,0,0,0,64.67,2.88C62.94,1.66,60.74-.24,58.47,0c-2.54.3-3.58,2.66-4.57,4.71-1.78-1.19-3.79-2.72-6-1.92C45.8,3.56,44.92,6,44,7.78A50.16,50.16,0,0,0,39.5,22c-.73,4.54-.87,9.11.77,13.48s5,8.35,8.45,11.65A49.87,49.87,0,0,0,55,52.18a30.75,30.75,0,0,0,7.1,4.11c-3,4-6.31,7.8-9.46,11.69a44.41,44.41,0,0,1-10.42,9.3c-4.92,3.17-11.23,6.28-17.24,5.1a28,28,0,0,1-8-3.39A44.15,44.15,0,0,1,7.7,72c1.61-1.3,4.23-2.35,4.43-4.68S9.73,63.47,8.22,62a46.19,46.19,0,0,1,11.25-6.54c3.7-1.52,7.43-2.64,11.44-1.78,3.46.75,6.77,2.74,9.66,4.73a44.39,44.39,0,0,1,9.24,8.55L54,61.72a51,51,0,0,0-10.67-9.36,33.39,33.39,0,0,0-11.45-5.21c-4.8-1-9.29.05-13.79,1.74a52,52,0,0,0-13,7.19C3.44,57.34,1.06,58.79.63,61c-.49,2.51,1.44,4.18,3.07,5.76C2,68.09,0,69.52,0,71.9c.05,2.2,2.09,3.79,3.54,5.2a50.5,50.5,0,0,0,12.15,8.72c3.89,2,7.9,3.45,12.33,3.41,5,0,9.88-2.07,14.22-4.38a49,49,0,0,0,7.23-4.67c2.07-1.62,3.83-3.51,5.78-5.24,2.63,4.25,5.44,8.4,8.17,12.59A43.06,43.06,0,0,1,69,99.93c1.59,5.91,2.72,13.18-.56,18.71a28.63,28.63,0,0,1-5.51,6.27,44.17,44.17,0,0,1-9.51,6.57c-.69-1.8-.93-4.47-2.75-5.5-2.31-1.32-4.62.91-6.59,1.92a44.25,44.25,0,0,1-2.77-18.75c.56-4.65,3.58-8.13,6.94-11.12a44,44,0,0,1,13.3-8.13l-3.63-5.62a50.66,50.66,0,0,0-12.47,7.49A32.55,32.55,0,0,0,37.12,101c-2.22,4.07-2.7,8.47-2.51,13a52.42,52.42,0,0,0,2.78,14.83c.69,2,1.35,4.83,3.36,5.94,2.24,1.25,4.41-.08,6.42-1.12.77,2,1.47,4.36,3.75,5.06s4.35-.83,6.18-1.8a50.55,50.55,0,0,0,12.35-9.24A25.59,25.59,0,0,0,76.2,117c1.39-4.76.9-10,0-14.84a44.33,44.33,0,0,0-5.31-15L87,82.89h0a40.71,40.71,0,0,1,20.39.27,18.08,18.08,0,0,1,8,3.91A22.66,22.66,0,0,1,120,93.8a43.58,43.58,0,0,1,4,12.63c-2,.12-4.8-.55-6.31,1.14s-.32,4.55,0,6.63a45,45,0,0,1-13.38-1.4c-3.55-.92-7-2.1-9.54-4.82s-4.11-6.35-5.33-9.78a45,45,0,0,1-2.5-12.31l-6.46,1.74a50.51,50.51,0,0,0,3.25,14.08c1.52,3.9,3.43,7.86,6.37,10.89,3.23,3.35,7.24,5.08,11.65,6.32a51.85,51.85,0,0,0,14.81,1.92c2.15,0,5.16.23,6.79-1.45s1.19-4.16.8-6.37c2.09-.1,4.52,0,5.91-1.86s.69-4.07.36-6a50.32,50.32,0,0,0-4.94-14.91c-2-3.84-4.41-7.33-8-9.82-4-2.74-8.89-3.93-13.6-4.63a50.34,50.34,0,0,0-8.41-.52,34.91,34.91,0,0,0-8.16.84c.21-5.54.53-11.08.87-16.61,0,0,0,0,0,0A42.57,42.57,0,0,1,94.7,40.31a18.12,18.12,0,0,1,6.17-6.52,23.44,23.44,0,0,1,8.53-2.47,43.67,43.67,0,0,1,12.71.13c-.53,2-2.08,4.53-.77,6.52s4.21,1.57,6.23,1.87a44,44,0,0,1-8.78,16.78c-3.08,3.43-7.65,4.47-12,4.92a43.41,43.41,0,0,1-15.64-1.25L90.76,67a50.54,50.54,0,0,0,13.76,1.29,34.83,34.83,0,0,0,11.79-2.19c8.47-3.51,13.48-12.66,16.44-20.89C134,41.88,136.79,35.14,131.43,33.83ZM80.7,77.76l-13.43,3.6L59.71,69.7l8.74-10.81,13,5Z"/><path class="cls-2" d="M325.66,96.44a7.27,7.27,0,0,1-4-5.39c-.33-2.61,0-28.39-.18-34.22C321.4,54,320,38.86,306,34.42a37.3,37.3,0,0,0-15.6-1.92,40,40,0,0,0-17.88,6.06c-1.78,1-1.71,1.9-.74,4.29l3,6.55a2.31,2.31,0,0,0,3,1.15c3.69-1.64,9.39-3.53,13.42-3.7a23,23,0,0,1,9.48,1.46c2.69,1.07,5.43,3.08,3.71,7.29a18.21,18.21,0,0,1-6.27,5.85c-3.93,2.48-8.38,4-12.57,6-5.6,2.69-12.86,5-16.39,10.39a19.86,19.86,0,0,0-3.08,10.8c0,13.36,9.68,17.91,12.19,18.83,5.31,2,17.22,1.82,24.19,0a17.86,17.86,0,0,0,9.2-5c1.75,2.85,5.58,5.15,7.69,6.19a2.16,2.16,0,0,0,2.88-1l4.46-8.13A2.48,2.48,0,0,0,325.66,96.44ZM305.9,84c-.11,6.73-4.81,9-11,10.62a28.06,28.06,0,0,1-9.17.44c-4.86-1-5.83-4.93-4.51-9.18,1.95-4.14,5.21-4.57,8.35-6,8.74-3.87,9.6-4,15.34-8.06.5-.36,1,0,1,.62Z"/><path class="cls-2" d="M254.61,85.75c-.26,15.66-16.76,23.3-28.58,23.11a32.84,32.84,0,0,1-21.73-7.12c-9.4,7.66-20.53,7.12-21.81,7.12-13.41-.3-28.57-8.21-28.57-23.73V34.51a2.27,2.27,0,0,1,2.28-2.27h11a2.27,2.27,0,0,1,2.28,2.27s.08,48.92.08,49.25c0,3.71,2.44,6.84,6.17,8.7a0,0,0,0,0,0,0,16.26,16.26,0,0,0,7.31,1.67,16.57,16.57,0,0,0,7-1.52c3.85-1.83,6.45-5,6.51-8.73,0-.05-.08-49.39-.08-49.39a2.26,2.26,0,0,1,2.27-2.27h11a2.27,2.27,0,0,1,2.28,2.27s-.15,48.62-.11,49c-.09,1.71.64,6.23,6.19,9a16.25,16.25,0,0,0,7.33,1.68,16,16,0,0,0,8.34-2.24C237,90,239,87.09,239,83.79V34.51a2.27,2.27,0,0,1,2.28-2.27h11a2.26,2.26,0,0,1,2.27,2.27Z"/><path class="cls-2" d="M385.26,69.37a1,1,0,0,0-.19,1l14.64,35.45a2.28,2.28,0,0,1-2.13,3.09H385.82a2.28,2.28,0,0,1-2.13-1.45L371,77.22a1,1,0,0,0-1.3-.5c-3.88,1.78-10,2.62-14.88,3.44a.78.78,0,0,0-.68.87v25.59a2.27,2.27,0,0,1-2.28,2.27h-11a2.28,2.28,0,0,1-2.28-2.28V10.92A1.91,1.91,0,0,1,340.41,9l12,.05a1.73,1.73,0,0,1,1.72,1.86V63.65a.92.92,0,0,0,1.05,1l1.09-.18c19.51-3.2,25.79-14.64,28.26-30.64a1.92,1.92,0,0,1,1.88-1.61h11.49a1.91,1.91,0,0,1,1.9,2.08C397.93,54.4,387.51,67,385.26,69.37Z"/><path class="cls-2" d="M469.65,34.39s-.07,51.71-.09,52.45c-.26,13.46-15.13,22-29.12,22-16.42-.52-29-9.41-29-23.53V34.39a2.28,2.28,0,0,1,2.28-2.27h11A2.28,2.28,0,0,1,427,34.39V83.63c0,5.8,6.05,10.51,13.52,10.51S454,89.51,454.06,83.77V34.39a2.27,2.27,0,0,1,2.27-2.27h11A2.28,2.28,0,0,1,469.65,34.39Z"/><path class="cls-2" d="M558.16,105.66a3.69,3.69,0,0,1,.31-1.57l28.59-79.76c.69-1.88,1.69-2.82,3.38-2.82s2.63.88,3.32,2.82l28.59,79.76a4.26,4.26,0,0,1,.31,1.57,2.11,2.11,0,0,1-2.32,2c-1.06,0-1.75-.57-2.25-1.94L608.33,78H572.42l-9.82,27.72a2.43,2.43,0,0,1-2.38,2A1.9,1.9,0,0,1,558.16,105.66ZM607,74.19l-16.39-47h-.32L573.74,74.19Z"/><path class="cls-2" d="M659.5,108.22c-14.08,0-24.46-10.38-24.46-27V68.31c0-18.08,11.7-27.09,24.59-27.09,13.45,0,19.58,8.69,21.33,14h.25V19.51a2.26,2.26,0,0,1,2.25-2.44,2.17,2.17,0,0,1,2.19,2.44V105a2.16,2.16,0,0,1-2.13,2.44,2.22,2.22,0,0,1-2.25-2.44V93.89H681C680,97.9,674,108.22,659.5,108.22Zm.38-4.13c13.76,0,21.33-11.45,21.33-23.65V69c0-13.27-8.45-23.72-21.4-23.72-10.51,0-20.33,7.57-20.33,24.15V80.19C639.48,95.58,648.49,104.09,659.88,104.09Z"/><path class="cls-2" d="M787.62,107.6a2.26,2.26,0,0,1-2.25-2.44V63.68c0-12.45-7-18.4-16.71-18.4-11.76,0-18,9.51-18,19.21v40.67a2.23,2.23,0,1,1-4.45,0V63.93c0-12-6.5-18.65-16.76-18.65-11.89,0-18,9.33-18,20.34v39.54a2.18,2.18,0,0,1-2.19,2.44,2.26,2.26,0,0,1-2.25-2.44V44.41A2.26,2.26,0,0,1,709.23,42a2.17,2.17,0,0,1,2.19,2.44v9.32h.31c1.44-5.19,6.7-12.51,18.21-12.51,11.26,0,17.58,6.69,19.21,13.89h.31c1.25-5.2,7.13-13.89,19.64-13.89,11.95,0,20.71,7.19,20.71,21.27v42.67A2.18,2.18,0,0,1,787.62,107.6Z"/><path class="cls-2" d="M813.57,20.89a4.16,4.16,0,1,1-4.12,4.19A4.12,4.12,0,0,1,813.57,20.89Zm.07,86.71a2.23,2.23,0,0,1-2.26-2.44v-61a2.21,2.21,0,0,1,2.19-2.44,2.26,2.26,0,0,1,2.26,2.44v61A2.18,2.18,0,0,1,813.64,107.6Z"/><path class="cls-2" d="M883.58,107.6a2.22,2.22,0,0,1-2.25-2.44V64.87c0-11.14-6.39-19.59-18.15-19.59-13.76,0-21,10.95-21,22.78v37.1a2.23,2.23,0,1,1-4.44,0V44.41A2.17,2.17,0,0,1,839.91,42a2.26,2.26,0,0,1,2.25,2.44v11h.25c2.13-7.07,9-14.14,21.21-14.14,13,0,22.15,8.26,22.15,22.9v41A2.22,2.22,0,0,1,883.58,107.6Z"/><rect class="cls-2" x="511.93" width="3.38" height="138.92"/></g></g></svg>