<?xml version="1.0" encoding="UTF-8"?>
<svg width="24px" height="24px" viewBox="0 0 24 24" version="1.1" xmlns="http://www.w3.org/2000/svg" xmlns:xlink="http://www.w3.org/1999/xlink">
    <!-- Generator: Sketch 51.3 (57544) - http://www.bohemiancoding.com/sketch -->
    <title>icon/stroke/001-edit</title>
    <desc>Created with Sketch.</desc>
    <defs>
        <path d="M20.8244531,13.9646719 C20.289,13.9646719 19.8549844,14.3986875 19.8549844,14.9341406 L19.8549844,20.8244531 C19.8549844,21.5063437 19.3002187,22.0610625 18.618375,22.0610625 L3.17559375,22.0610625 C2.49370313,22.0610625 1.93898437,21.5062969 1.93898437,20.8244531 L1.93898437,5.38171875 C1.93898437,4.69982813 2.49375,4.14510938 3.17559375,4.14510938 L9.06590625,4.14510938 C9.6013125,4.14510938 10.035375,3.71104688 10.035375,3.17564063 C10.035375,2.64023438 9.6013125,2.20617188 9.06590625,2.20617188 L3.17559375,2.20617188 C1.42457812,2.20617188 0,3.63075 0,5.38176563 L0,20.8245 C4.6875e-05,22.5754219 1.424625,24 3.17559375,24 L18.6183281,24 C20.3693438,24 21.7939219,22.5754219 21.7939219,20.8244063 L21.7939219,14.9340938 C21.7939219,14.3986875 21.3599063,13.9646719 20.8244531,13.9646719 Z M23.7160313,4.69617187 L19.3038281,0.28396875 C18.9252188,-0.094640625 18.3113906,-0.094640625 17.9327812,0.28396875 L6.90229687,11.3145 C6.72051562,11.4963281 6.61832812,11.7429375 6.61832812,12.0000469 L6.61832812,16.41225 C6.61832812,16.9477031 7.05239062,17.3817187 7.58779687,17.3817187 L12,17.3817187 C12.2571562,17.3817187 12.5037187,17.2795781 12.6855,17.0977969 L23.7160313,6.06721875 C23.8978594,5.88539062 24,5.63878125 24,5.38167187 C24,5.1245625 23.8978594,4.878 23.7160313,4.69617187 Z M11.5984688,15.4427344 L8.5573125,15.4427344 L8.5573125,12.4015781 L18.6183281,2.3405625 L21.6594844,5.38171875 L11.5984688,15.4427344 Z" id="path-1"></path>
    </defs>
    <g id="icon/stroke/001-edit" stroke="none" stroke-width="1" fill="none" fill-rule="evenodd">
        <mask id="mask-2" fill="white">
            <use xlink:href="#path-1"></use>
        </mask>
        <use id="001-edit" fill="#000000" fill-rule="nonzero" xlink:href="#path-1"></use>
        <g id="color-/-grayscale-/-primary-text" mask="url(#mask-2)" fill="#333333">
            <rect id="color/header" x="0" y="0" width="24" height="24"></rect>
        </g>
    </g>
</svg>