<?xml version="1.0" encoding="UTF-8"?>
<svg width="24px" height="24px" viewBox="0 0 24 24" version="1.1" xmlns="http://www.w3.org/2000/svg" xmlns:xlink="http://www.w3.org/1999/xlink">
    <!-- Generator: Sketch 51.3 (57544) - http://www.bohemiancoding.com/sketch -->
    <title>icon/stroke/002-trash</title>
    <desc>Created with Sketch.</desc>
    <defs>
        <path d="M21.9274688,4.41220309 L2.07253121,4.41220309 C1.53712496,4.41220309 1.10306245,4.8462656 1.10306245,5.38167185 C1.10306245,5.9170781 1.53712496,6.3511406 2.07253121,6.3511406 L21.9274688,6.3511406 C22.4629219,6.3511406 22.8969375,5.9170781 22.8969375,5.38167185 C22.8969375,4.8462656 22.4629219,4.41220309 21.9274688,4.41220309 Z M19.7213438,4.41220309 C19.1858907,4.41220309 18.751875,4.8462656 18.751875,5.38167185 L18.751875,20.8244063 C18.751875,21.5062969 18.1971094,22.0610157 17.5152656,22.0610157 L6.48473435,22.0610157 C5.80284372,22.0610157 5.24812497,21.50625 5.24812497,20.8244063 L5.24812497,5.38167185 C5.24812497,4.8462656 4.81406247,4.41220309 4.27865622,4.41220309 C3.74324997,4.41220309 3.30918746,4.8462656 3.30918746,5.38167185 L3.30918746,20.8244063 C3.30918746,22.5754219 4.73371872,24.0000001 6.48478123,24.0000001 L17.5153125,24.0000001 C19.2663282,24.0000001 20.6909063,22.5754219 20.6909063,20.8244063 L20.6909063,5.38167185 C20.6908594,4.8462656 20.2567969,4.41220309 19.7213438,4.41220309 Z M14.206125,-4.99999668e-08 L9.79392187,-4.99999668e-08 C8.04290623,-4.99999668e-08 6.6183281,1.42453121 6.6183281,3.17559371 L6.6183281,5.38171872 C6.6183281,5.91712497 7.0523906,6.35118748 7.58779686,6.35118748 C8.12320311,6.35118748 8.55726561,5.91712497 8.55726561,5.38171872 L8.55726561,3.17559371 C8.55726561,2.49370309 9.11203124,1.93898433 9.79387499,1.93898433 L14.2060781,1.93898433 C14.8879688,1.93898433 15.4426875,2.49374996 15.4426875,3.17559371 L15.4426875,5.38171872 C15.4426875,5.91712497 15.8767031,6.35118748 16.4121563,6.35118748 C16.9476094,6.35118748 17.381625,5.91712497 17.381625,5.38171872 L17.381625,3.17559371 C17.3816719,1.42457808 15.9571406,-4.99999668e-08 14.206125,-4.99999668e-08 Z M9.79387499,9.92746874 C9.25846874,9.92746874 8.82440624,10.3615312 8.82440624,10.8969375 L8.82440624,17.5152656 C8.82440624,18.0507188 9.25846874,18.4847344 9.79387499,18.4847344 C10.3292812,18.4847344 10.7633437,18.0507188 10.7633437,17.5152656 L10.7633437,10.8969375 C10.7633906,10.3615312 10.3293281,9.92746874 9.79387499,9.92746874 Z M14.206125,9.92746874 C13.6706719,9.92746874 13.2366563,10.3615312 13.2366563,10.8969375 L13.2366563,17.5152656 C13.2366563,18.0507188 13.6706719,18.4847344 14.206125,18.4847344 C14.7415781,18.4847344 15.1755938,18.0507188 15.1755938,17.5152656 L15.1755938,10.8969375 C15.1755938,10.3615312 14.7415781,9.92746874 14.206125,9.92746874 Z" id="path-1"></path>
    </defs>
    <g id="icon/stroke/002-trash" stroke="none" stroke-width="1" fill="none" fill-rule="evenodd">
        <mask id="mask-2" fill="white">
            <use xlink:href="#path-1"></use>
        </mask>
        <g id="icon/stroke/trash" fill-rule="nonzero"></g>
        <g id="color-/-grayscale-/-primary-text" mask="url(#mask-2)" fill="#333333">
            <g transform="translate(-1.000000, 0.000000)" id="color/header">
                <rect x="0" y="0" width="24" height="24"></rect>
            </g>
        </g>
    </g>
</svg>