<?xml version="1.0" encoding="UTF-8"?>
<svg width="24px" height="24px" viewBox="0 0 24 24" version="1.1" xmlns="http://www.w3.org/2000/svg" xmlns:xlink="http://www.w3.org/1999/xlink">
    <!-- Generator: Sketch 51.3 (57544) - http://www.bohemiancoding.com/sketch -->
    <title>icon/stroke/003-pie-chart</title>
    <desc>Created with Sketch.</desc>
    <defs>
        <path d="M20.4852657,3.51473434 C18.2187657,1.24823433 15.2053125,-5.00000006e-08 12,-5.00000006e-08 C8.79468749,-5.00000006e-08 5.78123435,1.24828121 3.51473434,3.51473434 C1.24823433,5.78118747 -5.00000006e-08,8.79468749 -5.00000006e-08,12 C-5.00000006e-08,15.2053125 1.24823433,18.2187657 3.51473434,20.4852657 C5.78118747,22.7517657 8.79468749,24.0000001 12,24.0000001 C15.2053125,24.0000001 18.2187657,22.7517657 20.4852657,20.4852657 C22.7517657,18.2187657 24.0000001,15.2053125 24.0000001,12 C24.0000001,8.79468749 22.7517657,5.78118747 20.4852657,3.51473434 Z M12,22.0610625 C6.45234373,22.0610625 1.93893746,17.5476563 1.93893746,12 C1.93893746,6.45234373 6.45234373,1.93893746 12,1.93893746 C17.5476563,1.93893746 22.0610625,6.45234373 22.0610625,12 C22.0610625,17.5476563 17.5476563,22.0610625 12,22.0610625 Z M23.0305313,11.0305312 L12.9694688,11.0305312 L12.9694688,0.969468704 C12.9694688,0.434062452 12.5354531,-5.00000006e-08 12,-5.00000006e-08 C11.4645937,-5.00000006e-08 11.0305312,0.434062452 11.0305312,0.969468704 L11.0305312,12 C11.0305312,12.5354531 11.4645937,12.9694688 12,12.9694688 L23.0305313,12.9694688 C23.5659844,12.9694688 24.0000001,12.5354531 24.0000001,12 C24.0000001,11.4645937 23.5659844,11.0305312 23.0305313,11.0305312 Z" id="path-1"></path>
    </defs>
    <g id="icon/stroke/003-pie-chart" stroke="none" stroke-width="1" fill="none" fill-rule="evenodd">
        <mask id="mask-2" fill="white">
            <use xlink:href="#path-1"></use>
        </mask>
        <g id="003-pie-chart" fill-rule="nonzero"></g>
        <g id="color-/-grayscale-/-primary-text" mask="url(#mask-2)" fill="#333333">
            <rect id="color/header" x="0" y="0" width="24" height="24"></rect>
        </g>
    </g>
</svg>