<?xml version="1.0" encoding="UTF-8"?>
<svg width="24px" height="24px" viewBox="0 0 24 24" version="1.1" xmlns="http://www.w3.org/2000/svg" xmlns:xlink="http://www.w3.org/1999/xlink">
    <!-- Generator: Sketch 51.3 (57544) - http://www.bohemiancoding.com/sketch -->
    <title>icon/stroke/004-tick</title>
    <desc>Created with Sketch.</desc>
    <defs>
        <path d="M23.7160313,1.38698433 C23.3374219,1.00837495 22.7235938,1.00837495 22.3449844,1.38698433 L10.8969375,12.8349844 L8.27329686,10.2113437 C7.89468748,9.83278124 7.28085936,9.83278124 6.90224998,10.2113437 C6.5236406,10.5899531 6.5236406,11.2037812 6.90224998,11.5823906 L10.2113906,14.8915781 C10.3932187,15.0734063 10.6398281,15.1755469 10.8969375,15.1755469 C11.1540469,15.1755469 11.4006562,15.0734063 11.5824844,14.8915781 L23.7160782,2.75798434 C24.0946407,2.37942183 24.0946407,1.76559371 23.7160313,1.38698433 Z M20.8244063,11.0305312 C20.2889532,11.0305312 19.8549375,11.4645937 19.8549375,12 L19.8549375,19.7213438 C19.8549375,20.4032344 19.3001719,20.9579532 18.6183282,20.9579532 L3.17559371,20.9579532 C2.49370309,20.9579532 1.93898433,20.4031875 1.93898433,19.7213438 L1.93898433,4.27860934 C1.93898433,3.59671871 2.49374996,3.04199996 3.17559371,3.04199996 L15.3091875,3.04199996 C15.8446406,3.04199996 16.2786563,2.60793746 16.2786563,2.07253121 C16.2786563,1.53712496 15.8446406,1.10306245 15.3091875,1.10306245 L3.17559371,1.10306245 C1.42457808,1.10306245 -5.00000006e-08,2.52764059 -5.00000006e-08,4.27860934 L-5.00000006e-08,19.7213438 C-5.00000006e-08,21.4724063 1.42457808,22.8969375 3.17559371,22.8969375 L18.6183282,22.8969375 C20.3693438,22.8969375 21.7939219,21.4724063 21.7939219,19.7213438 L21.7939219,12 C21.793875,11.4645937 21.3598594,11.0305312 20.8244063,11.0305312 Z" id="path-1"></path>
    </defs>
    <g id="icon/stroke/004-tick" stroke="none" stroke-width="1" fill="none" fill-rule="evenodd">
        <mask id="mask-2" fill="white">
            <use xlink:href="#path-1"></use>
        </mask>
        <g id="004-tick" fill-rule="nonzero"></g>
        <g id="color-/-grayscale-/-primary-text" mask="url(#mask-2)" fill="#333333">
            <rect id="color/header" x="0" y="0" width="24" height="24"></rect>
        </g>
    </g>
</svg>