<?xml version="1.0" encoding="UTF-8"?>
<svg width="24px" height="24px" viewBox="0 0 24 24" version="1.1" xmlns="http://www.w3.org/2000/svg" xmlns:xlink="http://www.w3.org/1999/xlink">
    <!-- Generator: Sketch 51.3 (57544) - http://www.bohemiancoding.com/sketch -->
    <title>icon/stroke/burger</title>
    <desc>Created with Sketch.</desc>
    <defs>
        <path d="M1,20 L15,20 C15.5522847,20 16,20.4477153 16,21 C16,21.5522847 15.5522847,22 15,22 L1,22 C0.44771525,22 6.76353751e-17,21.5522847 0,21 C-6.76353751e-17,20.4477153 0.44771525,20 1,20 Z M1,11 L23,11 C23.5522847,11 24,11.4477153 24,12 C24,12.5522847 23.5522847,13 23,13 L1,13 C0.44771525,13 6.76353751e-17,12.5522847 0,12 C-6.76353751e-17,11.4477153 0.44771525,11 1,11 Z M1,2 L19,2 C19.5522847,2 20,2.44771525 20,3 C20,3.55228475 19.5522847,4 19,4 L1,4 C0.44771525,4 6.76353751e-17,3.55228475 0,3 C-6.76353751e-17,2.44771525 0.44771525,2 1,2 Z" id="path-1"></path>
    </defs>
    <g id="icon/stroke/burger" stroke="none" stroke-width="1" fill="none" fill-rule="evenodd">
        <mask id="mask-2" fill="white">
            <use xlink:href="#path-1"></use>
        </mask>
        <use id="burger" fill="#000000" xlink:href="#path-1"></use>
        <g id="color-/-grayscale-/-primary-text" mask="url(#mask-2)" fill="#333333">
            <rect id="color/header" x="0" y="0" width="24" height="24"></rect>
        </g>
    </g>
</svg>