<?xml version="1.0" encoding="UTF-8"?>
<svg width="24px" height="24px" viewBox="0 0 24 24" version="1.1" xmlns="http://www.w3.org/2000/svg" xmlns:xlink="http://www.w3.org/1999/xlink">
    <!-- Generator: Sketch 51.3 (57544) - http://www.bohemiancoding.com/sketch -->
    <title>icon/stroke/display</title>
    <desc>Created with Sketch.</desc>
    <defs>
        <path d="M20.5793437,0 L3.42070312,0 C1.53454688,0 0,1.53454688 0,3.42070312 L0,20.5792969 C0,22.4655 1.53454688,24 3.42070312,24 L20.5792969,24 C22.4655,24 24,22.4655 24,20.5793437 L24,3.42070312 C24,1.53454688 22.4655,0 20.5793437,0 Z M22.0610625,20.5792969 C22.0610625,21.3963281 21.3963281,22.0610625 20.5793438,22.0610625 L3.42070313,22.0610625 C2.60367187,22.0610625 1.9389375,21.3963281 1.9389375,20.5793437 L1.9389375,3.42070313 C1.9389375,2.60367187 2.60367187,1.9389375 3.42070313,1.9389375 L20.5792969,1.9389375 C21.3963281,1.9389375 22.0610625,2.60367187 22.0610625,3.42070313 L22.0610625,20.5792969 Z M23.0305312,7.35370312 L0.96946875,7.35370312 C0.4340625,7.35370312 0,7.78776562 0,8.32317187 C0,8.85857812 0.4340625,9.29264062 0.96946875,9.29264062 L23.0305313,9.29264062 C23.5659844,9.29264062 24,8.85857812 24,8.32317187 C24,7.78776562 23.5659844,7.35370312 23.0305312,7.35370312 Z M8.32317187,7.35370312 C7.78776562,7.35370312 7.35370312,7.78776562 7.35370312,8.32317187 L7.35370312,23.0305312 C7.35370312,23.5659844 7.78776562,24 8.32317187,24 C8.85857812,24 9.29264062,23.5659844 9.29264062,23.0305312 L9.29264062,8.32317187 C9.29264062,7.78776562 8.85857812,7.35370312 8.32317187,7.35370312 Z" id="path-1"></path>
    </defs>
    <g id="icon/stroke/display" stroke="none" stroke-width="1" fill="none" fill-rule="evenodd">
        <mask id="mask-2" fill="white">
            <use xlink:href="#path-1"></use>
        </mask>
        <use id="009-display" fill="#000000" fill-rule="nonzero" xlink:href="#path-1"></use>
        <g id="color-/-grayscale-/-primary-text" mask="url(#mask-2)" fill="#333333">
            <rect id="color/header" x="0" y="0" width="24" height="24"></rect>
        </g>
    </g>
</svg>