<?xml version="1.0" encoding="UTF-8"?>
<svg width="24px" height="24px" viewBox="0 0 24 24" version="1.1" xmlns="http://www.w3.org/2000/svg" xmlns:xlink="http://www.w3.org/1999/xlink">
    <!-- Generator: Sketch 51.3 (57544) - http://www.bohemiancoding.com/sketch -->
    <title>icon/stroke/file</title>
    <desc>Created with Sketch.</desc>
    <defs>
        <path d="M21.5099531,8.0053125 L13.7885625,0.28396875 C13.6067344,0.102140625 13.3602187,0 13.1030625,0 L5.38167188,0 C3.63065625,0 2.206125,1.42457813 2.206125,3.17559375 L2.206125,20.8244063 C2.206125,22.5754219 3.63070313,24 5.38171875,24 L18.6183281,24 C20.3693437,24 21.7939219,22.5754219 21.7939219,20.8244063 L21.7939219,8.6908125 C21.793875,8.43375 21.6917812,8.18714063 21.5099531,8.0053125 Z M19.8549375,20.8244062 C19.8549375,21.5062969 19.3001719,22.0610156 18.6183281,22.0610156 L5.38167188,22.0610156 C4.69978125,22.0610156 4.1450625,21.50625 4.1450625,20.8244062 L4.1450625,3.17559375 C4.1450625,2.49370313 4.69982812,1.93898438 5.38167188,1.93898438 L12.7014375,1.93898438 L19.8548906,9.0924375 L19.8548906,20.8244062 L19.8549375,20.8244062 Z M20.8244063,7.72134375 L14.0725313,7.72134375 L14.0725313,0.96946875 C14.0725313,0.4340625 13.6385156,0 13.1030625,0 C12.5676094,0 12.1335938,0.4340625 12.1335938,0.96946875 L12.1335938,8.6908125 C12.1335938,9.22621875 12.5676094,9.66028125 13.1030625,9.66028125 L20.8244063,9.66028125 C21.3598594,9.66028125 21.793875,9.22621875 21.793875,8.6908125 C21.793875,8.15540625 21.3598594,7.72134375 20.8244063,7.72134375 Z" id="path-1"></path>
    </defs>
    <g id="icon/stroke/file" stroke="none" stroke-width="1" fill="none" fill-rule="evenodd">
        <mask id="mask-2" fill="white">
            <use xlink:href="#path-1"></use>
        </mask>
        <use id="file" fill="#000000" fill-rule="nonzero" xlink:href="#path-1"></use>
        <g id="color-/-grayscale-/-primary-text" mask="url(#mask-2)" fill="#333333">
            <rect id="color/header" x="0" y="0" width="24" height="24"></rect>
        </g>
    </g>
</svg>