<?xml version="1.0" encoding="UTF-8"?>
<svg width="24px" height="24px" viewBox="0 0 24 24" version="1.1" xmlns="http://www.w3.org/2000/svg" xmlns:xlink="http://www.w3.org/1999/xlink">
    <!-- Generator: Sketch 51.3 (57544) - http://www.bohemiancoding.com/sketch -->
    <title>icon/stroke/gear</title>
    <desc>Created with Sketch.</desc>
    <defs>
        <path d="M20.2720936,15.3603275 C20.3795088,15.1097076 20.6251696,14.9469942 20.8940351,14.9459649 L20.9840936,14.9459649 C22.6213333,14.9459649 23.9533567,13.6139415 23.9533567,11.9767018 C23.9533567,10.3395088 22.6213333,9.00748538 20.9840936,9.00748538 L20.8178246,9.00748538 C20.5870877,9.00654971 20.3757661,8.88996491 20.2510877,8.70226901 C20.2372865,8.63410526 20.2161871,8.5674386 20.1879766,8.5034386 C20.0749942,8.24753216 20.1275322,7.95312281 20.3218246,7.75218713 L20.3748772,7.6991345 C20.3763743,7.69773099 20.3778246,7.6962807 20.3792281,7.69483041 C20.9396959,7.1337076 21.2481871,6.38788304 21.2476725,5.59476023 C21.2472515,4.80299415 20.9389474,4.05871345 20.3796491,3.49852632 C20.378152,3.49702924 20.3767018,3.49557895 20.3752515,3.49408187 C19.8145029,2.93394152 19.0693801,2.62559064 18.2768655,2.62559064 C18.2763509,2.62559064 18.2757427,2.62559064 18.2751813,2.62559064 C17.4820585,2.6260117 16.7365614,2.93529825 16.1764678,3.49604678 L16.1210292,3.55153216 C15.9201404,3.74573099 15.625731,3.79831579 15.3697778,3.68538012 C15.3665965,3.68402339 15.3634152,3.68261988 15.3602339,3.68126316 C15.109614,3.57384795 14.9469006,3.32818713 14.9458713,3.05936842 L14.9458713,2.96926316 C14.9458713,1.33207018 13.613848,4.67836257e-05 11.9766082,4.67836257e-05 C10.3393684,4.67836257e-05 9.00739181,1.33207018 9.00739181,2.96926316 L9.00739181,3.13557895 C9.00645614,3.36631579 8.88987135,3.57763743 8.70217544,3.70226901 C8.6340117,3.71607018 8.56734503,3.73721637 8.50334503,3.7654269 C8.24748538,3.87840936 7.95302924,3.82582456 7.75209357,3.63157895 L7.69473684,3.57417544 C7.13394152,3.01403509 6.38891228,2.70568421 5.59639766,2.70568421 C5.59583626,2.70568421 5.59518129,2.70568421 5.59466667,2.70568421 C4.80154386,2.70610526 4.05604678,3.01539181 3.4939883,3.57810526 C2.93347368,4.13918129 2.62502924,4.88500585 2.62549708,5.67812865 C2.62591813,6.47125146 2.93520468,7.21670175 3.49595322,7.77679532 L3.55139181,7.83223392 C3.74563743,8.03316959 3.79822222,8.32753216 3.68528655,8.58348538 C3.67700585,8.60215205 3.6694269,8.62105263 3.66236257,8.64018713 C3.56580117,8.90264327 3.32435088,9.0774269 3.04556725,9.08748538 L2.96916959,9.08748538 C1.33202339,9.08748538 0,10.4195088 0,12.0567018 C0,13.6939883 1.33202339,15.0259649 2.96930994,15.0258713 L3.13557895,15.0258713 C3.40832749,15.0269942 3.65389474,15.189614 3.76130994,15.4402339 C3.76266667,15.443462 3.76407018,15.4466433 3.7654269,15.4497778 C3.87840936,15.7056842 3.82582456,16.0000936 3.63153216,16.201076 L3.57609357,16.2564678 C3.57483041,16.2577778 3.57356725,16.2590877 3.57225731,16.2603977 C3.01295906,16.8212398 2.70521637,17.5663158 2.70563743,18.3585029 C2.70605848,19.1516257 3.01534503,19.8971228 3.57646784,20.4575906 C3.57782456,20.4589942 3.57922807,20.4603977 3.58063158,20.4617544 C4.73918129,21.6163275 6.62091228,21.6144094 7.77674854,20.4572164 L7.83223392,20.401731 C8.03312281,20.2075322 8.32753216,20.1548538 8.5834386,20.267883 C8.60205848,20.2760702 8.62095906,20.2836959 8.64009357,20.2907602 C8.90259649,20.3873216 9.07733333,20.6288187 9.0874386,20.9076023 L9.0874386,20.9839532 C9.0874386,22.621193 10.419462,23.9532164 12.056655,23.9532164 C13.6939415,23.9532164 15.0259181,22.621193 15.0259649,20.9840468 L15.0259649,20.8178246 C15.0270877,20.545076 15.1897076,20.299462 15.4403275,20.1920468 C15.4435556,20.1906433 15.4466901,20.1892865 15.4498246,20.1879298 C15.7057778,20.0749474 16.0001871,20.1274854 16.2011228,20.3217778 L16.2585263,20.3791345 C16.8192749,20.9392749 17.5643509,21.2476725 18.3568655,21.2476257 C18.3574269,21.2476257 18.3580351,21.2476257 18.3585965,21.2476257 C19.1517193,21.2471579 19.8972164,20.9379181 20.4592749,20.3752515 C21.6162807,19.2168889 21.6152515,17.3331462 20.4573567,16.1764678 L20.4018713,16.1210292 C20.2076725,15.9200936 20.1550877,15.625731 20.2680234,15.369731 C20.2694269,15.3666433 20.2707836,15.3635088 20.2720936,15.3603275 Z M19.0212865,17.4772865 C19.0237661,17.4798129 19.0262924,17.4823392 19.0287719,17.4848655 L19.0891696,17.5452632 C19.4924912,17.9482573 19.4929123,18.6042573 19.0883743,19.0092164 C18.893193,19.2046784 18.6335439,19.3123743 18.3573333,19.3125146 C18.3570994,19.3125146 18.3569591,19.3125146 18.3567251,19.3125146 C18.0807018,19.3125146 17.821193,19.2050994 17.6247485,19.0088421 L17.5647251,18.9488187 C17.5621988,18.9462924 17.5596725,18.9438129 17.5570994,18.9412865 C16.7884444,18.1894737 15.6568421,17.9833918 14.6727953,18.4155789 C13.7156491,18.8281637 13.0948304,19.7674386 13.0906199,20.8139415 L13.0906199,20.9840468 C13.0906199,21.5542456 12.6267602,22.0181053 12.0565614,22.0181053 C11.4864094,22.0181053 11.0225497,21.5541988 11.0225497,20.9840468 L11.0225497,20.8939883 C11.0225497,20.8864561 11.0224561,20.878924 11.022269,20.871345 C10.997193,19.7993918 10.3367018,18.8661053 9.33674854,18.4853801 C8.35822222,18.0666667 7.23840936,18.2755088 6.47592982,19.0213333 C6.47340351,19.0238129 6.47087719,19.0263392 6.46835088,19.0288187 L6.40790643,19.0892632 C6.00500585,19.4926316 5.34895906,19.4930526 4.94554386,19.0901053 C4.94437427,19.0889357 4.94315789,19.0877661 4.94203509,19.0866433 C4.74783626,18.8916491 4.64088889,18.6328421 4.64070175,18.3575673 C4.64051462,18.0813567 4.74797661,17.8216608 4.94315789,17.6262456 C4.9442807,17.6251696 4.94535673,17.624 4.94647953,17.622924 L5.00439766,17.5649591 C5.00692398,17.5624327 5.00945029,17.5599064 5.01192982,17.5573333 C5.76369591,16.7888187 5.96977778,15.6572164 5.53773099,14.6731696 C5.12519298,13.7159298 4.18582456,13.0950643 3.13927485,13.0908538 L2.96912281,13.0908538 C2.39897076,13.0908538 1.93511111,12.6269474 1.93511111,12.0567953 C1.93511111,11.4866433 2.39901754,11.0227836 2.96912281,11.0227368 L3.05922807,11.0227368 C3.06676023,11.0227368 3.07433918,11.0226433 3.08187135,11.0224561 C4.15391813,10.9973801 5.08715789,10.3368889 5.46788304,9.33693567 C5.88650292,8.35840936 5.67775439,7.23869006 4.93192982,6.47621053 C4.92945029,6.47368421 4.92692398,6.47115789 4.92439766,6.46863158 L4.864,6.40818713 C4.6685848,6.21295906 4.56088889,5.95335673 4.56074854,5.6771462 C4.5605614,5.40098246 4.66802339,5.14123977 4.86479532,4.94423392 C5.06002339,4.74881871 5.31962573,4.64112281 5.59583626,4.64098246 C5.59607018,4.64098246 5.59621053,4.64098246 5.59644444,4.64098246 C5.87246784,4.64098246 6.13197661,4.74839766 6.32842105,4.94465497 L6.38849123,5.00467836 C6.39097076,5.00720468 6.39354386,5.00973099 6.39607018,5.01221053 C7.11733333,5.7177076 8.15826901,5.94264327 9.09707602,5.61052632 C9.18577778,5.59915789 9.27274854,5.57553216 9.35536842,5.54011696 C10.3154152,5.12865497 10.9384795,4.18788304 10.9426433,3.13955556 L10.9426433,2.96940351 C10.9426433,2.39925146 11.4065029,1.93539181 11.976655,1.93539181 C12.546807,1.93539181 13.0107135,2.39929825 13.0107135,2.96945029 L13.0107135,3.06339181 C13.0148304,4.10605848 13.6357427,5.0454269 14.5929825,5.4580117 C15.5771228,5.89019883 16.7085848,5.68397661 17.477193,4.93221053 C17.4797193,4.92973099 17.4822456,4.92720468 17.4848187,4.92467836 L17.5452632,4.8642807 C17.7404444,4.6688655 18.0000936,4.56116959 18.2762573,4.56102924 C18.2764912,4.56102924 18.2766784,4.56102924 18.2768655,4.56102924 C18.552,4.56102924 18.8108538,4.66778947 19.0058947,4.86175439 C19.0069708,4.86287719 19.0080936,4.86395322 19.0091696,4.86507602 C19.2046316,5.06030409 19.3123275,5.31990643 19.3124678,5.59611696 C19.312655,5.87157895 19.2058012,6.1305731 19.0116959,6.32580117 C19.0107602,6.32673684 19.0097778,6.32767251 19.0087953,6.32865497 L18.9487719,6.38872515 C18.9462456,6.39120468 18.9437661,6.39373099 18.9412398,6.39630409 C18.2357427,7.11756725 18.010807,8.15854971 18.342924,9.09730994 C18.3543392,9.18605848 18.3779649,9.27302924 18.4133801,9.35564912 C18.8248421,10.3156959 19.765614,10.9387602 20.8139415,10.942924 L20.9840468,10.942924 C21.5542456,10.942924 22.0181053,11.4067836 22.0181053,11.9769357 C22.0181053,12.5470877 21.5541988,13.0109942 20.9840468,13.0109942 L20.890152,13.0109942 C19.8474854,13.0151111 18.9081637,13.6360234 18.4955322,14.5932164 C18.0633918,15.5770292 18.2695205,16.7087251 19.0212865,17.4772865 Z M11.9766082,8.00664327 C9.78755556,8.00664327 8.00654971,9.78760234 8.00654971,11.9767018 C8.00654971,14.1658012 9.78750877,15.9467602 11.9766082,15.9467602 C14.1657076,15.9467602 15.9466667,14.1658012 15.9466667,11.9767018 C15.9466667,9.78760234 14.1656608,8.00664327 11.9766082,8.00664327 Z M11.9766082,14.0115088 C10.8545965,14.0115088 9.94175439,13.0987135 9.94175439,11.976655 C9.94175439,10.8546433 10.8545965,9.94180117 11.9766082,9.94180117 C13.0986667,9.94180117 14.011462,10.8546433 14.011462,11.976655 C14.011462,13.0986667 13.0986667,14.0115088 11.9766082,14.0115088 Z" id="path-1"></path>
    </defs>
    <g id="icon/stroke/gear" stroke="none" stroke-width="1" fill="none" fill-rule="evenodd">
        <mask id="mask-2" fill="white">
            <use xlink:href="#path-1"></use>
        </mask>
        <use id="007-gear" fill="#000000" fill-rule="nonzero" xlink:href="#path-1"></use>
        <g id="color-/-grayscale-/-primary-text" mask="url(#mask-2)" fill="#333333">
            <rect id="color/header" x="0" y="0" width="24" height="24"></rect>
        </g>
    </g>
</svg>