<?xml version="1.0" encoding="UTF-8"?>
<svg width="24px" height="24px" viewBox="0 0 24 24" version="1.1" xmlns="http://www.w3.org/2000/svg" xmlns:xlink="http://www.w3.org/1999/xlink">
    <!-- Generator: Sketch 51.3 (57544) - http://www.bohemiancoding.com/sketch -->
    <title>icon/stroke/hide</title>
    <desc>Created with Sketch.</desc>
    <defs>
        <path d="M18.7275469,17.3687813 C18.4029375,16.9429688 17.7946406,16.8608906 17.3688281,17.1854531 C15.8102344,18.3734532 13.9512656,19.0190625 11.992125,19.0527188 C9.37635936,19.0503282 6.88743748,17.8161563 4.59398434,15.3844688 C3.32718746,14.0412188 2.46796871,12.6782813 2.07707808,12.0023906 C3.23962496,9.97940624 4.76999997,8.23584373 6.63192185,6.81398435 C7.0574531,6.48899998 7.1390156,5.88060935 6.81403123,5.4550781 C6.48904685,5.02954685 5.88065622,4.94798435 5.45512497,5.27296872 C3.23348434,6.96946873 1.43685933,9.07851561 0.1152187,11.5415625 C-0.0337031751,11.8191562 -0.0385313002,12.1517813 0.10237495,12.4335 C0.145874951,12.5205938 1.19081245,14.5894219 3.14521871,16.6740938 C4.30645309,17.9127188 5.5518281,18.9030469 6.84684373,19.6175157 C8.49946874,20.5293282 10.2332344,20.9916563 12.0000469,20.9916563 C12.0053438,20.9916563 12.0105938,20.9916094 12.0158906,20.9915157 C14.3946094,20.9526563 16.6521094,20.1697969 18.5442188,18.7275 C18.9700782,18.4029375 19.0521563,17.7946406 18.7275469,17.3687813 Z M23.897625,11.5664531 C23.8540782,11.4794062 22.8091407,9.41053124 20.8547813,7.32585936 C19.6935938,6.08718748 18.4481719,5.09690622 17.1531563,4.38243747 C15.5005781,3.47062496 13.7667656,3.00829684 12.0022969,3.00829684 C11.2190625,3.00632809 10.4356406,3.09604684 9.67321874,3.27449996 C9.15187499,3.39651559 8.82815624,3.91809372 8.95026561,4.43943747 C9.07228124,4.96078122 9.59395311,5.28449997 10.1152031,5.1623906 C10.7314687,5.01815622 11.3651719,4.94699997 12.0000469,4.94723435 C14.6186719,4.94723435 17.1104063,6.18140623 19.4061094,8.61548436 C20.673375,9.95915624 21.5327813,11.3226094 21.9234375,11.9982187 C21.4017657,12.9080156 20.7975,13.7727656 20.1227813,14.5745625 C19.7780157,14.98425 19.8306563,15.5957813 20.2403907,15.9405469 C20.4221719,16.0935469 20.64375,16.1682656 20.8641094,16.1682188 C21.1402969,16.1682188 21.4146563,16.0508438 21.606375,15.8229844 C22.4794219,14.7854531 23.24625,13.6529531 23.8855782,12.4569375 C24.0337032,12.1797188 24.0382969,11.84775 23.897625,11.5664531 Z M14.7867656,13.4165625 C14.3949844,13.0515938 13.7815313,13.0732969 13.4165156,13.4649375 C13.0453125,13.863375 12.5410781,14.0933906 11.9968594,14.1126094 C11.4530625,14.1322031 10.9334531,13.9379063 10.5350156,13.5667031 C9.71249999,12.8002969 9.66689062,11.507625 10.4333437,10.6851094 C10.465875,10.6501875 10.5001406,10.6159687 10.5351562,10.5832969 C10.9268437,10.2181875 10.9483594,9.60478124 10.5832969,9.21309374 C10.2182344,8.82140624 9.60478124,8.79993749 9.21309374,9.16495311 C9.14493749,9.22851561 9.07818749,9.29526561 9.01481249,9.36328124 C7.51954686,10.9679531 7.60856248,13.4899688 9.21323436,14.9852344 C9.95540624,15.6767813 10.9122187,16.0529063 11.9214844,16.0529063 C11.9692969,16.0529063 12.0172969,16.0520625 12.0652969,16.050375 C13.1271094,16.0129219 14.1108281,15.5641875 14.8351875,14.7868125 C15.2001563,14.3950781 15.1785,13.781625 14.7867656,13.4165625 Z M23.7160313,22.3450313 L1.65501558,0.283968701 C1.27645308,-0.0946406754 0.662578078,-0.0946406754 0.284015576,0.283968701 C-0.0945938004,0.662531203 -0.0945938004,1.27635933 0.284015576,1.65496871 L22.3450782,23.7160313 C22.5343594,23.9053594 22.7825157,24 23.030625,24 C23.2787344,24 23.5268907,23.9053594 23.716125,23.7160782 C24.0945938,23.3374688 24.0945938,22.7236407 23.7160313,22.3450313 Z" id="path-1"></path>
    </defs>
    <g id="icon/stroke/hide" stroke="none" stroke-width="1" fill="none" fill-rule="evenodd">
        <mask id="mask-2" fill="white">
            <use xlink:href="#path-1"></use>
        </mask>
        <use id="hide" fill="#000000" fill-rule="nonzero" xlink:href="#path-1"></use>
        <g id="color-/-grayscale-/-primary-text" mask="url(#mask-2)" fill="#333333">
            <rect id="color/header" x="0" y="0" width="24" height="24"></rect>
        </g>
    </g>
</svg>