<?xml version="1.0" encoding="UTF-8"?>
<svg width="24px" height="24px" viewBox="0 0 24 24" version="1.1" xmlns="http://www.w3.org/2000/svg" xmlns:xlink="http://www.w3.org/1999/xlink">
    <!-- Generator: Sketch 51.3 (57544) - http://www.bohemiancoding.com/sketch -->
    <title>icon/stroke/history</title>
    <desc>Created with Sketch.</desc>
    <defs>
        <path d="M22.925625,16.6851563 C21.0220867,20.6595148 16.911879,23.0958606 12.511599,22.8581213 C8.11131894,22.620382 4.28753384,19.7553768 2.82328121,15.5990625 C2.65940051,15.0983048 2.9255092,14.5583425 3.422462,14.3832622 C3.9194148,14.2081819 4.46521456,14.4621026 4.65140622,14.955 C6.29203123,19.6129688 11.416875,22.0673438 16.0748438,20.42625 C20.7328125,18.7851563 23.1871875,13.6607813 21.5460938,9.00281249 C19.905,4.34484372 14.7810938,1.89046871 10.125,3.53156246 C8.86520276,3.97742884 7.72036509,4.69795605 6.77343748,5.64093747 L6.75234373,5.66156247 L3.41671871,8.79374999 L7.58859373,8.79374999 C8.12396476,8.79374999 8.55796874,9.22775396 8.55796874,9.76312499 C8.55796874,10.298496 8.12396476,10.7325 7.58859373,10.7325 L0.969374954,10.7325 L0.954843704,10.7325 C0.937499954,10.7325 0.920156204,10.7325 0.902343704,10.7301562 C0.884531204,10.7278125 0.872343704,10.7301562 0.857812454,10.7264062 L0.810937453,10.719375 C0.794531203,10.7165625 0.778593703,10.7142187 0.764062453,10.7109375 L0.721874953,10.7001562 C0.705468703,10.6954687 0.689062453,10.6917187 0.674999953,10.6865625 C0.660937453,10.6814062 0.646874953,10.67625 0.633281203,10.6710937 C0.619687453,10.6659375 0.602343703,10.6598437 0.586406202,10.6532812 C0.570468702,10.6467187 0.557343702,10.6396875 0.542812452,10.6326562 C0.528281202,10.625625 0.515624952,10.6195312 0.502499952,10.6120312 C0.489374952,10.6045312 0.473906202,10.5951562 0.459843702,10.58625 C0.445781202,10.5773437 0.434531202,10.5707812 0.422343702,10.5623437 C0.410156202,10.5539062 0.396562452,10.5435937 0.383437452,10.53375 C0.370312452,10.5239062 0.358124951,10.5145312 0.346406201,10.5042187 C0.334687451,10.4939062 0.323906201,10.4845312 0.313124951,10.4742187 C0.302343701,10.4639062 0.287343701,10.4503125 0.275156201,10.4376562 C0.271874951,10.434375 0.268124951,10.4315625 0.264843701,10.4278125 C0.261562451,10.4240625 0.252656201,10.4128125 0.246093701,10.4057812 C0.239531201,10.39875 0.223124951,10.3795312 0.212343701,10.3654687 C0.201562451,10.3514062 0.193593701,10.3410937 0.184687451,10.3289062 C0.175781201,10.3167187 0.165937451,10.3026562 0.157031201,10.2890625 C0.148124951,10.2754687 0.140156201,10.261875 0.132187451,10.2478125 L0.10968745,10.2075 C0.1026562,10.1929687 0.0956249504,10.1784375 0.0890624504,10.1639062 C0.0824999503,10.149375 0.0764062003,10.1353125 0.0707812003,10.1207812 C0.0651562003,10.10625 0.0595312002,10.09125 0.0543749502,10.07625 C0.0492187002,10.06125 0.0445312002,10.04625 0.0398437002,10.029375 C0.0351562001,10.0125 0.0318749501,9.99843749 0.0281249501,9.98249999 L0.0182812001,9.93562499 C0.0154687001,9.91937499 0.0131249501,9.90374999 0.01124995,9.88874999 C0.00890620004,9.87421874 0.00703120003,9.85921874 0.00609370003,9.84187499 C0.00515620002,9.82453124 0.00609370003,9.80624999 0.00328120001,9.78843749 C0.00328120001,9.77906249 0.00328120001,9.76968749 0.00328120001,9.76031249 L0.00328120001,3.14578121 C0.00328120001,2.61041018 0.437285172,2.17640621 0.972656204,2.17640621 C1.50802724,2.17640621 1.94203121,2.61041018 1.94203121,3.14578121 L1.94203121,7.52203123 L5.41546872,4.25812497 C6.56557705,3.11628819 7.95452707,2.24363184 9.48234374,1.70296871 C13.6381536,0.240699485 18.2656054,1.4251203 21.2078486,4.70417385 C24.1500918,7.98322741 24.8280095,12.711503 22.925625,16.6851563 Z M16.2717188,16.0129688 C15.9458912,16.3387187 15.4177026,16.3387187 15.091875,16.0129688 L12.2442188,13.1653125 C12.0879373,13.0086535 12.0001185,12.7964387 12,12.5751563 L12,6.87984373 C12.0107389,6.42686301 12.3810326,6.06524392 12.8341406,6.06524392 C13.2872486,6.06524392 13.6575423,6.42686301 13.6682813,6.87984373 L13.6682813,12.2296875 L16.2717188,14.833125 C16.5974687,15.1589526 16.5974687,15.6871412 16.2717188,16.0129688 Z" id="path-1"></path>
    </defs>
    <g id="icon/stroke/history" stroke="none" stroke-width="1" fill="none" fill-rule="evenodd">
        <mask id="mask-2" fill="white">
            <use xlink:href="#path-1"></use>
        </mask>
        <g id="history" fill-rule="nonzero"></g>
        <g id="color-/-grayscale-/-primary-text" mask="url(#mask-2)" fill="#333333">
            <rect id="color/header" x="0" y="0" width="24" height="24"></rect>
        </g>
    </g>
</svg>