<?xml version="1.0" encoding="UTF-8"?>
<svg width="24px" height="24px" viewBox="0 0 24 24" version="1.1" xmlns="http://www.w3.org/2000/svg" xmlns:xlink="http://www.w3.org/1999/xlink">
    <!-- Generator: Sketch 51.3 (57544) - http://www.bohemiancoding.com/sketch -->
    <title>icon/stroke/image</title>
    <desc>Created with Sketch.</desc>
    <defs>
        <path d="M20.5793438,-5.00000006e-08 L3.42070309,-5.00000006e-08 C1.53454683,-5.00000006e-08 -5.00000006e-08,1.53454683 -5.00000006e-08,3.42070309 L-5.00000006e-08,20.5792969 C-5.00000006e-08,22.4655 1.53454683,24.0000001 3.42070309,24.0000001 L20.5792969,24.0000001 C22.4655,24.0000001 24.0000001,22.4655 24.0000001,20.5793438 L24.0000001,3.42070309 C24.0000001,1.53454683 22.4655,-5.00000006e-08 20.5793438,-5.00000006e-08 Z M22.0610625,20.5792969 C22.0610625,21.3963282 21.3963282,22.0610625 20.5793438,22.0610625 L3.42070309,22.0610625 C2.60367184,22.0610625 1.93893746,21.3963282 1.93893746,20.5793438 L1.93893746,3.42070309 C1.93893746,2.60367184 2.60367184,1.93893746 3.42070309,1.93893746 L20.5792969,1.93893746 C21.3963282,1.93893746 22.0610625,2.60367184 22.0610625,3.42070309 L22.0610625,20.5792969 Z M7.71032811,4.90242185 C6.16199998,4.90242185 4.90242185,6.16204685 4.90242185,7.71032811 C4.90242185,9.25860936 6.16204685,10.5182344 7.71032811,10.5182344 C9.25860936,10.5182344 10.5182344,9.25865624 10.5182344,7.71032811 C10.5182344,6.16199998 9.25865624,4.90242185 7.71032811,4.90242185 Z M7.71032811,8.57934374 C7.23117186,8.57934374 6.84135935,8.18953123 6.84135935,7.71037498 C6.84135935,7.23121873 7.23117186,6.84140623 7.71032811,6.84140623 C8.18948436,6.84140623 8.57929686,7.23121873 8.57929686,7.71037498 C8.57929686,8.18953123 8.18948436,8.57934374 7.71032811,8.57934374 Z M23.7160313,14.9912813 L17.5879688,8.86326561 C17.2093594,8.48465624 16.5955313,8.48465624 16.2169219,8.86326561 L2.73520309,22.3449844 C2.35659371,22.7235938 2.35659371,23.3374219 2.73520309,23.7160313 C2.92448434,23.9053594 3.17264059,24 3.42074996,24 C3.66885934,24 3.91696872,23.9053594 4.10624997,23.7160313 L16.9024688,10.9198125 L22.3450313,16.3623281 C22.7236407,16.7409375 23.3374688,16.7409375 23.7160782,16.3623281 C24.0946407,15.9837656 24.0946407,15.3698906 23.7160313,14.9912813 Z" id="path-1"></path>
    </defs>
    <g id="icon/stroke/image" stroke="none" stroke-width="1" fill="none" fill-rule="evenodd">
        <mask id="mask-2" fill="white">
            <use xlink:href="#path-1"></use>
        </mask>
        <use id="image" fill="#000000" fill-rule="nonzero" xlink:href="#path-1"></use>
        <g id="color-/-grayscale-/-primary-text" mask="url(#mask-2)" fill="#333333">
            <rect id="color/header" x="0" y="0" width="24" height="24"></rect>
        </g>
    </g>
</svg>