<?xml version="1.0" encoding="UTF-8"?>
<svg width="24px" height="24px" viewBox="0 0 24 24" version="1.1" xmlns="http://www.w3.org/2000/svg" xmlns:xlink="http://www.w3.org/1999/xlink">
    <!-- Generator: Sketch 51.3 (57544) - http://www.bohemiancoding.com/sketch -->
    <title>icon/stroke/info</title>
    <desc>Created with Sketch.</desc>
    <defs>
        <path d="M20.4852656,3.51473437 C18.2187656,1.24823438 15.2053125,0 12,0 C8.7946875,0 5.78123438,1.24828125 3.51473437,3.51473437 C1.24823437,5.7811875 0,8.7946875 0,12 C0,15.2053125 1.24823438,18.2187656 3.51473437,20.4852656 C5.7811875,22.7517656 8.7946875,24 12,24 C15.2053125,24 18.2187656,22.7517656 20.4852656,20.4852656 C22.7517656,18.2187656 24,15.2053125 24,12 C24,8.7946875 22.7517656,5.7811875 20.4852656,3.51473437 Z M12,22.0610625 C6.45234375,22.0610625 1.9389375,17.5476563 1.9389375,12 C1.9389375,6.45234375 6.45234375,1.9389375 12,1.9389375 C17.5476563,1.9389375 22.0610625,6.45234375 22.0610625,12 C22.0610625,17.5476563 17.5476563,22.0610625 12,22.0610625 Z M12,11.0305313 C11.4645937,11.0305313 11.0305312,11.4645938 11.0305312,12 L11.0305312,16.4122031 C11.0305312,16.9476563 11.4645937,17.3816719 12,17.3816719 C12.5354531,17.3816719 12.9694687,16.9476563 12.9694687,16.4122031 L12.9694687,12 C12.9694687,11.4645938 12.5354531,11.0305313 12,11.0305313 Z M12.6855469,6.90225 C12.5049844,6.7216875 12.2550938,6.61828125 12,6.61828125 C11.7449063,6.61828125 11.4950156,6.7216875 11.3144531,6.90225 C11.1338906,7.08276563 11.0304844,7.33270313 11.0304844,7.58779688 C11.0304844,7.84289063 11.1338906,8.09278125 11.3144531,8.27334375 C11.4950156,8.45385938 11.7449063,8.5573125 12,8.5573125 C12.2550938,8.5573125 12.5049844,8.45390625 12.6855469,8.27334375 C12.8661094,8.09278125 12.9695156,7.84289063 12.9695156,7.58779688 C12.9694688,7.33270313 12.8660156,7.0828125 12.6855469,6.90225 Z" id="path-1"></path>
    </defs>
    <g id="icon/stroke/info" stroke="none" stroke-width="1" fill="none" fill-rule="evenodd">
        <mask id="mask-2" fill="white">
            <use xlink:href="#path-1"></use>
        </mask>
        <use id="006-info" fill="#000000" fill-rule="nonzero" xlink:href="#path-1"></use>
        <g id="color-/-grayscale-/-primary-text" mask="url(#mask-2)" fill="#333333">
            <rect id="color/header" x="0" y="0" width="24" height="24"></rect>
        </g>
    </g>
</svg>