<?xml version="1.0" encoding="UTF-8"?>
<svg width="24px" height="24px" viewBox="0 0 24 24" version="1.1" xmlns="http://www.w3.org/2000/svg" xmlns:xlink="http://www.w3.org/1999/xlink">
    <!-- Generator: Sketch 51.3 (57544) - http://www.bohemiancoding.com/sketch -->
    <title>icon/stroke/padlock</title>
    <desc>Created with Sketch.</desc>
    <defs>
        <path d="M19.7213438,9.92746874 L4.27865622,9.92746874 C2.52764059,9.92746874 1.10306245,11.3520469 1.10306245,13.1030625 L1.10306245,20.8244063 C1.10306245,22.5754219 2.52764059,24.0000001 4.27865622,24.0000001 L19.7213907,24.0000001 C21.4724532,24.0000001 22.8969844,22.5754219 22.8969844,20.8244063 L22.8969844,13.1030625 C22.8969375,11.3520469 21.4724063,9.92746874 19.7213438,9.92746874 Z M20.958,20.8244063 C20.958,21.5062969 20.4032344,22.0610157 19.7213907,22.0610157 L4.27865622,22.0610157 C3.59676559,22.0610157 3.04204684,21.50625 3.04204684,20.8244063 L3.04204684,13.1030625 C3.04204684,12.4211719 3.59681246,11.8664531 4.27865622,11.8664531 L19.7213907,11.8664531 C20.4032813,11.8664531 20.958,12.4212188 20.958,13.1030625 L20.958,20.8244063 Z M12,-5.00000503e-08 C8.42428124,-5.00000503e-08 5.5152656,2.90906246 5.5152656,6.48473435 L5.5152656,10.8969375 C5.5152656,11.4323437 5.9493281,11.8664062 6.48473435,11.8664062 C7.0201406,11.8664062 7.45420311,11.4323437 7.45420311,10.8969375 L7.45420311,6.48473435 C7.45420311,3.97818747 9.49340624,1.93893746 12,1.93893746 C14.5065938,1.93893746 16.5457969,3.97814059 16.5457969,6.48473435 L16.5457969,10.8969375 C16.5457969,11.4323437 16.9798125,11.8664062 17.5152656,11.8664062 C18.0507188,11.8664062 18.4847344,11.4323437 18.4847344,10.8969375 L18.4847344,6.48473435 C18.4847344,2.90906246 15.5757188,-5.00000503e-08 12,-5.00000503e-08 Z" id="path-1"></path>
    </defs>
    <g id="icon/stroke/padlock" stroke="none" stroke-width="1" fill="none" fill-rule="evenodd">
        <mask id="mask-2" fill="white">
            <use xlink:href="#path-1"></use>
        </mask>
        <g id="padlock" fill-rule="nonzero"></g>
        <g id="color-/-grayscale-/-primary-text" mask="url(#mask-2)" fill="#333333">
            <rect id="color/header" x="0" y="0" width="24" height="24"></rect>
        </g>
    </g>
</svg>