<?xml version="1.0" encoding="UTF-8"?>
<svg width="24px" height="24px" viewBox="0 0 24 24" version="1.1" xmlns="http://www.w3.org/2000/svg" xmlns:xlink="http://www.w3.org/1999/xlink">
    <!-- Generator: Sketch 51.3 (57544) - http://www.bohemiancoding.com/sketch -->
    <title>icon/stroke/phone</title>
    <desc>Created with Sketch.</desc>
    <defs>
        <path d="M19.7060117,9.14638595 C19.4677895,7.92528653 18.8768655,6.81487717 17.997193,5.93515787 C17.1174737,5.05548535 16.0070176,4.46456137 14.7859181,4.22629237 C14.2614737,4.12388301 13.7532632,4.4661988 13.6509006,4.99069003 C13.5485848,5.51522804 13.890807,6.023345 14.4152983,6.12566079 C16.1391345,6.4619415 17.470269,7.79312279 17.8065965,9.51695905 C17.8967486,9.97890058 18.3016141,10.299462 18.7552749,10.299462 C18.8167018,10.299462 18.8790176,10.293614 18.9416608,10.2813567 C19.4661053,10.1790409 19.8083275,9.67087718 19.7060117,9.14638595 Z M23.9261755,9.21305262 C23.6628305,6.8693801 22.5987837,4.66081868 20.9300585,2.99424558 C19.2613801,1.32762569 17.051462,0.266385916 14.7074152,0.00598825412 C14.1761871,-0.0530058982 13.6979181,0.329730946 13.638924,0.860818667 C13.5799298,1.39195317 13.9626199,1.87031575 14.4937544,1.92935668 C18.468538,2.37090054 21.5564913,5.45497073 22.0030878,9.42923976 C22.0586667,9.92355555 22.4774269,10.2888421 22.9634153,10.2888421 C22.9994854,10.2888421 23.0360234,10.2868304 23.0727018,10.2827134 C23.6037427,10.2229708 23.9858714,9.74414034 23.9261755,9.21305262 Z M20.2381287,14.6229708 C20.2352281,14.6225965 20.2323275,14.6221754 20.2294269,14.6218012 C19.2931462,14.4983392 18.369731,14.2682573 17.4870176,13.9389474 C16.3684211,13.5183626 15.0962339,13.7896608 14.2463158,14.6300351 C14.2450059,14.631345 14.2436959,14.6326082 14.2424328,14.6339181 L13.4401871,15.4361638 C11.4456608,14.1765614 9.7556959,12.4865965 8.49614034,10.492117 L9.29843274,9.68982455 C9.2996959,9.68851461 9.30095905,9.68725145 9.30226899,9.68594151 C10.1426901,8.83607016 10.4139415,7.56402337 9.99419882,6.44743857 C9.66404677,5.56257307 9.43401169,4.63911108 9.31050291,3.70283037 C9.31017543,3.69988301 9.30970759,3.69688885 9.30928654,3.69394149 C9.09450291,2.17450288 7.77562571,1.03971925 6.24271343,1.05221048 L3.09019879,1.05221048 C2.99929821,1.05230405 2.90718125,1.05646779 2.81637423,1.06470171 C1.12949703,1.21712276 -0.118877243,2.71349704 0.0335905934,4.40037424 C0.0340584297,4.40542687 0.0345262659,4.41043272 0.0350876694,4.41548535 C0.394573051,7.80046782 1.56252627,11.0999298 3.41272511,13.9572398 C5.09188301,16.5986901 7.37534501,18.8821053 10.0167953,20.5614035 C12.8608655,22.4049591 16.1449825,23.5728188 19.5144796,23.9389942 C19.5204211,23.939696 19.5263626,23.9402574 19.5322573,23.940772 C19.624,23.9490059 19.7170059,23.9532164 19.8092632,23.9532164 C19.8131462,23.9532164 19.8169825,23.9532164 19.8208187,23.9532632 C21.5145731,23.9463392 22.886924,22.5627603 22.8800468,20.8729825 L22.8800468,17.727579 C22.9120936,16.1737544 21.7784796,14.8402807 20.2381287,14.6229708 Z M20.9449357,17.7167252 L20.9449357,20.8768655 C20.9475088,21.503579 20.4396725,22.0154854 19.8132398,22.0180585 C19.7797895,22.0178714 19.7465731,22.0167954 19.7133568,22.0140351 C16.6453801,21.6790176 13.6554386,20.6145497 11.0660117,18.9352983 C11.0635322,18.9336608 11.0610058,18.9320702 11.0584795,18.9304796 C8.65244443,17.4015907 6.57263156,15.321731 5.04374266,12.9157427 C5.04224559,12.9133567 5.04074851,12.9110175 5.03920465,12.9085848 C3.35359061,10.3067134 2.2890292,7.30226899 1.96032744,4.21955552 C1.90778943,3.59812862 2.36865493,3.0481871 2.99054967,2.99199996 C3.02409353,2.98900581 3.05805844,2.98741517 3.09090055,2.98741517 L6.2470643,2.98741517 C6.25389471,2.98736838 6.26081869,2.98727482 6.26778945,2.9873216 C6.83017542,2.9873216 7.31209355,3.40392979 7.39265495,3.96130991 C7.53534501,5.04028067 7.80065495,6.10428068 8.1819415,7.12617542 C8.33721636,7.5393684 8.23756724,8.00893566 7.92804677,8.32341519 L6.59391811,9.65754385 C6.2859415,9.96547368 6.22170758,10.4413099 6.43700582,10.8199766 C8.02002338,13.6039766 10.3283275,15.9122339 13.1123275,17.4952983 C13.4909942,17.7105029 13.9667836,17.6464094 14.274807,17.3383392 L15.6087018,16.0044445 C15.9230877,15.6946901 16.3930293,15.5949942 16.8083275,15.7511111 C17.8281638,16.1316491 18.8923977,16.3969591 19.9713685,16.5396491 C20.541193,16.621848 20.9595322,17.1169123 20.9452164,17.6927252 C20.9450293,17.7007252 20.9449357,17.7087252 20.9449357,17.7167252 Z" id="path-1"></path>
    </defs>
    <g id="icon/stroke/phone" stroke="none" stroke-width="1" fill="none" fill-rule="evenodd">
        <mask id="mask-2" fill="white">
            <use xlink:href="#path-1"></use>
        </mask>
        <g id="icon/stroke/sign-out-copy" fill-rule="nonzero"></g>
        <g id="color-/-grayscale-/-primary-text" mask="url(#mask-2)" fill="#333333">
            <rect id="color/header" x="0" y="0" width="24" height="24"></rect>
        </g>
    </g>
</svg>