<?xml version="1.0" encoding="UTF-8"?>
<svg width="24px" height="24px" viewBox="0 0 24 24" version="1.1" xmlns="http://www.w3.org/2000/svg" xmlns:xlink="http://www.w3.org/1999/xlink">
    <!-- Generator: Sketch 51.3 (57544) - http://www.bohemiancoding.com/sketch -->
    <title>icon/stroke/question-mark</title>
    <desc>Created with Sketch.</desc>
    <defs>
        <path d="M12.5647488,5.64708269 C11.7176661,5.36474883 10.7294977,5.64708269 10.0235819,6.21175039 C9.31766615,6.77641809 8.89416537,7.62350078 8.89416537,8.61175039 C8.89416537,9.03525117 9.17649922,9.31766615 9.60008113,9.31766615 C10.0235819,9.31766615 10.3059969,9.0353323 10.3059969,8.61175039 C10.3059969,8.18824961 10.4471638,7.62350078 10.8706646,7.34116693 C11.2941654,7.05883307 11.7177473,6.91766615 12.282415,7.05883307 C12.9883307,7.2 13.4118315,7.76474883 13.5529984,8.32941654 C13.6941654,9.0353323 13.5529984,9.6 12.9883307,10.0235819 C11.8589142,10.8706646 11.2941654,12.1412481 11.2941654,13.4118315 C11.2941654,13.8353323 11.5764992,14.1177473 12.0000811,14.1177473 C12.4235819,14.1177473 12.7059969,13.8354134 12.5647488,13.4118315 C12.5647488,12.5647488 13.1294165,11.7176661 13.8353323,11.1529984 C14.8235819,10.3059158 15.2470827,9.17649922 14.9647488,8.04708269 C14.6823339,6.77649922 13.6941654,5.92941654 12.5647488,5.64708269 Z M11.4353323,17.082415 C11.2941654,17.2235819 11.2941654,17.5059158 11.2941654,17.6470827 C11.2941654,17.7882496 11.2941654,17.9294165 11.4353323,18.0705835 C11.5764992,18.2117504 11.8588331,18.3529173 12,18.3529173 C12.1411669,18.3529173 12.4235008,18.2117504 12.4235008,18.0705835 C12.5646677,18.0705835 12.7058346,17.7882496 12.7058346,17.6470827 C12.7058346,17.3647488 12.5646677,17.2235819 12.4235008,17.082415 C12.1411669,16.8 11.7176661,16.8 11.4353323,17.082415 Z M12,3.28626015e-14 C5.3646677,3.28626015e-14 0,5.3646677 0,12 C0,18.6353323 5.3646677,24 12,24 C18.6353323,24 24,18.6353323 24,12 C24,5.3646677 18.6353323,3.28626015e-14 12,3.28626015e-14 Z M12,22.5882496 C6.21175039,22.5882496 1.41175039,17.7882496 1.41175039,12 C1.41175039,6.21175039 6.21175039,1.41175039 12,1.41175039 C17.7882496,1.41175039 22.5882496,6.21175039 22.5882496,12 C22.5882496,17.7882496 17.7882496,22.5882496 12,22.5882496 Z" id="path-1"></path>
    </defs>
    <g id="icon/stroke/question-mark" stroke="none" stroke-width="1" fill="none" fill-rule="evenodd">
        <mask id="mask-2" fill="white">
            <use xlink:href="#path-1"></use>
        </mask>
        <use fill="#000000" fill-rule="nonzero" xlink:href="#path-1"></use>
        <g id="color-/-grayscale-/-primary-text" mask="url(#mask-2)" fill="#333333">
            <rect id="color/header" x="0" y="0" width="24" height="24"></rect>
        </g>
    </g>
</svg>