<?xml version="1.0" encoding="UTF-8"?>
<svg width="24px" height="24px" viewBox="0 0 24 24" version="1.1" xmlns="http://www.w3.org/2000/svg" xmlns:xlink="http://www.w3.org/1999/xlink">
    <!-- Generator: Sketch 51.3 (57544) - http://www.bohemiancoding.com/sketch -->
    <title>icon/stroke/refresh</title>
    <desc>Created with Sketch.</desc>
    <defs>
        <path d="M23.7426901,10.6011696 C23.7333334,10.6152047 23.7192983,10.6292398 23.7052632,10.6432748 C23.7005848,10.6479532 23.6959065,10.6573099 23.6865498,10.6619883 C23.6818714,10.6666667 23.6818714,10.6666667 23.677193,10.671345 C23.6631579,10.6853801 23.6491229,10.6994152 23.6350878,10.7134503 C23.625731,10.722807 23.6163743,10.7321637 23.6070176,10.7415205 C23.5929825,10.7555556 23.5789474,10.7649123 23.560234,10.774269 C23.5508772,10.7836257 23.5368422,10.7929825 23.5274854,10.7976608 C23.5134503,10.8070175 23.4947369,10.8163743 23.4807018,10.825731 C23.4713451,10.8304094 23.45731,10.8397661 23.4479533,10.8444444 C23.4245615,10.8584795 23.3964913,10.8725146 23.3684211,10.8818713 C23.3637427,10.8818713 23.3637427,10.8865497 23.3590644,10.8865497 C23.2982457,10.9099415 23.2374269,10.928655 23.1719299,10.9426901 C23.1719299,10.9426901 23.1672515,10.9426901 23.1672515,10.9426901 C23.1391813,10.9473684 23.1064328,10.9520468 23.0783626,10.9567251 C23.0502924,10.9614035 23.0222223,10.9614035 22.9941521,10.9614035 C22.9894737,10.9614035 22.9894737,10.9614035 22.9847954,10.9614035 L16.9824562,10.9614035 C16.4491228,10.9614035 16.0140351,10.5263158 16.0140351,9.99298245 C16.0140351,9.45964911 16.4491228,9.02456139 16.9824562,9.02456139 L20.5426901,9.02456139 L17.6795322,6.3345029 C17.6701755,6.32982454 17.6654971,6.32046781 17.6561404,6.31111109 C16.8140351,5.46900582 15.7754386,4.81403506 14.6526316,4.41637424 C10.4748538,2.93801166 5.871345,5.13216371 4.39298242,9.31461987 C4.21520465,9.81988303 3.66315786,10.0818713 3.1578947,9.90409356 C2.65263154,9.72631578 2.39064323,9.17894736 2.56842101,8.67836256 C3.45730991,6.16608185 5.27251459,4.14970757 7.67719296,3.00350873 C10.0818713,1.8573099 12.7906433,1.71228066 15.302924,2.60116955 C16.6923977,3.09239762 17.974269,3.90175435 19.0175439,4.94035085 L22.0210527,7.76140349 L22.0210527,3.9953216 C22.0210527,3.46198827 22.4561404,3.02690055 22.9894737,3.02690055 C23.5228071,3.02690055 23.9578948,3.46198827 23.9578948,3.9953216 L23.9578948,10.0023392 C23.9578948,10.0116959 23.9578948,10.0210526 23.9578948,10.0304093 C23.9578948,10.0491228 23.9578948,10.0631579 23.9532164,10.0818713 C23.9532164,10.0959064 23.9485381,10.1099415 23.9485381,10.128655 C23.9485381,10.1426901 23.9438597,10.1614035 23.9391813,10.1754386 C23.934503,10.1894737 23.934503,10.2081871 23.9298246,10.2222222 C23.9251462,10.2362573 23.9204679,10.2502924 23.9204679,10.2690058 C23.9157895,10.2830409 23.9111112,10.3017544 23.9064328,10.3157895 C23.9017544,10.3298246 23.8970761,10.3438596 23.8923977,10.3578947 C23.8877193,10.3719298 23.8783626,10.3859649 23.8736843,10.4 C23.8690059,10.4140351 23.8596492,10.4280702 23.8549708,10.4421053 C23.8456141,10.4561403 23.8409357,10.4701754 23.831579,10.4842105 C23.8222223,10.4982456 23.8175439,10.5122807 23.8081872,10.5216374 C23.7988305,10.5356725 23.7894737,10.5497076 23.780117,10.5637427 C23.7614036,10.5777778 23.7520468,10.5871345 23.7426901,10.6011696 Z M20.7953217,14.0912281 C20.2900585,13.9134503 19.7380117,14.1754386 19.5602339,14.6807018 C19.1625731,15.8035088 18.5076024,16.8421053 17.6654971,17.6842106 C14.5309942,20.8187135 9.43157894,20.8187135 6.297076,17.6795322 C6.28771927,17.6701755 6.28304091,17.6654971 6.27368419,17.6561404 L3.41052628,14.9660819 L6.97076021,14.9660819 C7.50409355,14.9660819 7.93918127,14.5309942 7.93918127,13.9976608 C7.93918127,13.4643275 7.50409355,13.0292398 6.97076021,13.0292398 L0.968421007,13.0292398 C0.963742644,13.0292398 0.959064281,13.0292398 0.954385919,13.0292398 C0.940350831,13.0292398 0.921637381,13.0292398 0.907602293,13.0339181 C0.893567205,13.0339181 0.874853755,13.0339181 0.860818667,13.0385965 C0.846783579,13.0385965 0.832748491,13.0432749 0.818713404,13.0432749 C0.799999953,13.0479532 0.785964866,13.0479532 0.767251415,13.0526316 C0.753216327,13.0573099 0.743859602,13.0573099 0.729824514,13.0619883 C0.711111064,13.0666667 0.692397614,13.071345 0.678362526,13.0760234 C0.664327438,13.0807018 0.654970713,13.0853801 0.640935625,13.0900585 C0.622222175,13.0947368 0.608187087,13.1040936 0.589473637,13.1087719 C0.575438549,13.1134503 0.561403461,13.122807 0.552046736,13.1274854 C0.538011648,13.1368421 0.52397656,13.1415205 0.509941473,13.1508772 C0.495906385,13.1602339 0.481871297,13.1649123 0.467836209,13.174269 C0.453801121,13.1836257 0.439766034,13.1883041 0.425730946,13.1976608 C0.411695858,13.2070175 0.402339133,13.2163743 0.388304045,13.225731 C0.374268957,13.2350877 0.36023387,13.2444444 0.350877144,13.2584795 C0.341520419,13.2678363 0.327485331,13.277193 0.318128606,13.2865497 C0.304093519,13.3005848 0.290058431,13.3099415 0.280701706,13.3239766 C0.276023343,13.328655 0.276023343,13.328655 0.27134498,13.3333333 C0.266666618,13.3380117 0.257309893,13.3473684 0.25263153,13.3567252 C0.238596442,13.3707602 0.229239717,13.3847953 0.219882992,13.3988304 C0.210526267,13.4128655 0.201169541,13.4222222 0.191812816,13.4362573 C0.182456091,13.4502924 0.173099366,13.4643275 0.163742641,13.4783626 C0.154385916,13.4923977 0.14502919,13.5064328 0.140350828,13.5204678 C0.130994103,13.5345029 0.12631574,13.548538 0.116959015,13.5625731 C0.10760229,13.5766082 0.102923927,13.5906433 0.0982455644,13.6046784 C0.0935672019,13.6187135 0.0842104767,13.6327485 0.0795321141,13.6467836 C0.0748537515,13.6608187 0.0701753889,13.6748538 0.0608186637,13.6935673 C0.0561403011,13.7076023 0.0514619385,13.7216374 0.0467835759,13.7403509 C0.0421052133,13.754386 0.0374268507,13.7730994 0.0327484881,13.7871345 C0.0280701256,13.8011696 0.0280701256,13.8152047 0.023391763,13.8339181 C0.0187134004,13.8526316 0.0187134004,13.8666667 0.0140350378,13.8853801 C0.0140350378,13.8994152 0.00935667519,13.9134503 0.00935667519,13.9274854 C0.00935667519,13.9461988 0.00935667519,13.9649123 0.00467831259,13.9836257 C0.00467831259,13.9929825 0.00467831259,14.0023392 0.00467831259,14.0116959 L0.00467831259,20.0187135 C0.00467831259,20.5520468 0.439766034,20.9871345 0.973099369,20.9871345 C1.5064327,20.9871345 1.94152043,20.5520468 1.94152043,20.0187135 L1.94152043,16.2526316 L4.94502921,19.0736842 C6.82573097,20.9497076 9.32865496,21.9836258 11.9859649,21.9883041 C11.9859649,21.9883041 11.9859649,21.9883041 11.9906433,21.9883041 C14.6526316,21.9883041 17.1602339,20.9497076 19.0409357,19.0690059 C20.0842106,18.025731 20.8982457,16.7345029 21.3941521,15.3403509 C21.5625731,14.825731 21.3005848,14.2690059 20.7953217,14.0912281 Z" id="path-1"></path>
    </defs>
    <g id="icon/stroke/refresh" stroke="none" stroke-width="1" fill="none" fill-rule="evenodd">
        <mask id="mask-2" fill="white">
            <use xlink:href="#path-1"></use>
        </mask>
        <g fill-rule="nonzero"></g>
        <g id="color-/-grayscale-/-primary-text" mask="url(#mask-2)" fill="#333333">
            <rect id="color/header" x="0" y="0" width="24" height="24"></rect>
        </g>
    </g>
</svg>