<?xml version="1.0" encoding="UTF-8"?>
<svg width="24px" height="24px" viewBox="0 0 24 24" version="1.1" xmlns="http://www.w3.org/2000/svg" xmlns:xlink="http://www.w3.org/1999/xlink">
    <!-- Generator: Sketch 51.3 (57544) - http://www.bohemiancoding.com/sketch -->
    <title>icon/stroke/right-quotation-mark</title>
    <desc>Created with Sketch.</desc>
    <defs>
        <path d="M8.2917983,1.84270584 L2.76393273,1.84270584 C1.99608399,1.84270584 1.34354617,2.11144534 0.80601676,2.64877307 C0.268739447,3.18620164 -5.00000006e-08,3.83873946 -5.00000006e-08,4.60663862 L-5.00000006e-08,10.1343025 C-5.00000006e-08,10.9021513 0.268588186,11.5545882 0.80601676,12.091916 C1.34349575,12.6291933 1.99623525,12.8980336 2.76393273,12.8980336 L5.98845376,12.8980336 C6.37220166,12.8980336 6.69857141,13.0324538 6.9673109,13.3010924 C7.2360504,13.5695798 7.37036973,13.8960504 7.37036973,14.2801008 L7.37036973,14.7404874 C7.37036973,15.7578151 7.01042015,16.6260504 6.29072267,17.3459496 C5.57097476,18.0654958 4.70253778,18.425395 3.68510921,18.425395 L2.76393273,18.425395 C2.51425206,18.425395 2.29840332,18.5168067 2.11598315,18.6990252 C1.93371424,18.8812437 1.84250416,19.0972437 1.84250416,19.3467731 L1.84250416,21.1895799 C1.84250416,21.4387059 1.93371424,21.6551093 2.11598315,21.8373782 C2.29855458,22.0195463 2.51420164,22.1110084 2.76393273,22.1110084 L3.68515963,22.1110084 C4.6833277,22.1110084 5.6358151,21.9163866 6.54277309,21.5278488 C7.44968065,21.1392605 8.23416805,20.6136807 8.89638654,19.9514622 C9.55845377,19.2891933 10.0839328,18.5048572 10.4725714,17.5978992 C10.8611597,16.6909916 11.0555294,15.7385546 11.0555294,14.7405378 L11.0555294,4.60643694 C11.0555294,3.83853778 10.7867899,3.18605038 10.2494622,2.64872265 C9.71213444,2.11139492 9.05944537,1.84270584 8.2917983,1.84270584 Z M23.1473446,2.64877307 C22.6100673,2.11144534 21.957479,1.84270584 21.1896303,1.84270584 L15.6619664,1.84270584 C14.8941177,1.84270584 14.2415798,2.11144534 13.7042521,2.64877307 C13.1669748,3.18625206 12.8983361,3.83873946 12.8983361,4.60663862 L12.8983361,10.1343025 C12.8983361,10.9021513 13.1669748,11.5545882 13.7042521,12.091916 C14.2415798,12.6291933 14.8941681,12.8980336 15.6619664,12.8980336 L18.8864874,12.8980336 C19.2702353,12.8980336 19.5968572,13.0324538 19.8655463,13.3010924 C20.1339832,13.5697311 20.2686051,13.8960504 20.2686051,14.2801008 L20.2686051,14.7404874 C20.2686051,15.7578151 19.9086555,16.6260504 19.1888068,17.3459496 C18.4691093,18.0654958 17.600874,18.425395 16.5833446,18.425395 L15.6619664,18.425395 C15.4124874,18.425395 15.196437,18.5168067 15.0142185,18.6990252 C14.8318488,18.8812437 14.7405378,19.0972437 14.7405378,19.3467731 L14.7405378,21.1895799 C14.7405378,21.4387059 14.8318488,21.6551093 15.0142185,21.8373782 C15.1963866,22.0195463 15.412437,22.1110084 15.6619664,22.1110084 L16.5833446,22.1110084 C17.5813614,22.1110084 18.5337983,21.9163866 19.4408572,21.5278488 C20.3476135,21.1392605 21.132,20.6136807 21.7942689,19.9514622 C22.4564874,19.2891933 22.982269,18.5046555 23.3706555,17.5978992 C23.7591933,16.6911933 23.9536639,15.7385546 23.9536639,14.7405378 L23.9536639,4.60643694 C23.9535127,3.83853778 23.6850253,3.18605038 23.1473446,2.64877307 Z" id="path-1"></path>
    </defs>
    <g id="icon/stroke/right-quotation-mark" stroke="none" stroke-width="1" fill="none" fill-rule="evenodd">
        <mask id="mask-2" fill="white">
            <use xlink:href="#path-1"></use>
        </mask>
        <use id="right-quotation-mark" fill="#000000" fill-rule="nonzero" xlink:href="#path-1"></use>
        <g id="color-/-grayscale-/-secondary-text" mask="url(#mask-2)" fill="#8A8A8A">
            <rect id="color/header" x="0" y="0" width="24" height="24"></rect>
        </g>
    </g>
</svg>