<?xml version="1.0" encoding="UTF-8"?>
<svg width="24px" height="24px" viewBox="0 0 24 24" version="1.1" xmlns="http://www.w3.org/2000/svg" xmlns:xlink="http://www.w3.org/1999/xlink">
    <!-- Generator: Sketch 51.3 (57544) - http://www.bohemiancoding.com/sketch -->
    <title>icon/stroke/search</title>
    <desc>Created with Sketch.</desc>
    <defs>
        <path d="M17.3469375,2.97628121 C15.4276406,1.05698433 12.8759063,-5.00000006e-08 10.1616094,-5.00000006e-08 C7.44731248,-5.00000006e-08 4.89553122,1.05698433 2.97628121,2.97628121 C1.05698433,4.89553122 -5.00000006e-08,7.44731248 -5.00000006e-08,10.1615625 C-5.00000006e-08,12.8758594 1.05698433,15.4276406 2.97628121,17.3468906 C4.89553122,19.2661407 7.44735936,20.3231719 10.1616094,20.3231719 C12.8758594,20.3231719 15.4276406,19.2661407 17.3469375,17.3468906 C19.2661875,15.4276406 20.3232188,12.8758594 20.3232188,10.1615625 C20.3231719,7.44731248 19.2661875,4.89553122 17.3469375,2.97628121 Z M10.1615625,18.3841875 C5.6275781,18.3841875 1.93893746,14.6955469 1.93893746,10.1615625 C1.93893746,5.6275781 5.62762497,1.93893746 10.1616094,1.93893746 C14.6955938,1.93893746 18.3841875,5.6275781 18.3841875,10.1615625 C18.3841875,14.6955469 14.6955469,18.3841875 10.1615625,18.3841875 Z M23.7160782,22.3449844 L17.3428594,15.9718125 C16.96425,15.5932031 16.3504219,15.5932031 15.9718125,15.9718125 C15.59325,16.3504219 15.59325,16.96425 15.9718125,17.3428594 L22.3449844,23.7160313 C22.5342657,23.9053594 22.7824219,24.0000001 23.0305313,24.0000001 C23.2786407,24.0000001 23.5267969,23.9053594 23.7160782,23.7160313 C24.0946407,23.3374219 24.0946407,22.7235938 23.7160782,22.3449844 Z" id="path-1"></path>
    </defs>
    <g id="icon/stroke/search" stroke="none" stroke-width="1" fill="none" fill-rule="evenodd">
        <mask id="mask-2" fill="white">
            <use xlink:href="#path-1"></use>
        </mask>
        <use id="icon/stroke/diagonal" fill="#000000" fill-rule="nonzero" xlink:href="#path-1"></use>
        <g id="color-/-grayscale-/-primary-text" mask="url(#mask-2)" fill="#333333">
            <rect id="color/header" x="0" y="0" width="24" height="24"></rect>
        </g>
    </g>
</svg>