<?xml version="1.0" encoding="UTF-8"?>
<svg width="24px" height="24px" viewBox="0 0 24 24" version="1.1" xmlns="http://www.w3.org/2000/svg" xmlns:xlink="http://www.w3.org/1999/xlink">
    <!-- Generator: Sketch 51.3 (57544) - http://www.bohemiancoding.com/sketch -->
    <title>icon/stroke/sign-out</title>
    <desc>Created with Sketch.</desc>
    <defs>
        <path d="M23.93,12.33 C23.8892785,12.434406 23.8280771,12.5296082 23.75,12.61 L19.46,16.89 C19.2566966,17.1471332 18.9248994,17.2663332 18.6044418,17.1973641 C18.2839843,17.128395 18.0306013,16.883252 17.9510791,16.5652489 C17.8715569,16.2472457 17.9797262,15.9116904 18.23,15.7 L21.07,12.86 L6.85999998,12.86 C6.38503509,12.86 5.99999997,12.4749649 5.99999997,12 C5.99999997,11.5250351 6.38503509,11.14 6.85999998,11.14 L21.07,11.14 L18.25,8.31999998 C17.9710662,7.97800772 17.9962693,7.48038911 18.3083292,7.16832918 C18.6203892,6.85626925 19.1180078,6.83106613 19.46,7.10999998 L23.75,11.39 C23.9900391,11.6404622 24.0605294,12.0085779 23.93,12.33 Z M15.43,15.43 C14.9550351,15.43 14.57,15.8150351 14.57,16.29 L14.57,21.43 C14.5700319,21.9010869 14.1910551,22.2845223 13.72,22.29 L2.56999996,22.29 C2.09729112,22.2845971 1.71540287,21.9027089 1.70999996,21.43 L1.70999996,2.56999996 C1.71540287,2.09729112 2.09729112,1.71540287 2.56999996,1.70999996 L13.72,1.70999996 C14.1910551,1.71547771 14.5700319,2.09891307 14.57,2.56999996 L14.57,7.70999998 C14.57,8.18496487 14.9550351,8.56999999 15.43,8.56999999 C15.9049649,8.56999999 16.29,8.18496487 16.29,7.70999998 L16.29,2.56999996 C16.284518,1.1529051 15.1370949,0.00548200318 13.72,-5.00000006e-08 L2.56999996,-5.00000006e-08 C1.15062815,-5.0000001e-08 -5.00000004e-08,1.15062815 -5.00000006e-08,2.56999996 L-5.00000006e-08,21.43 C-5.00000004e-08,22.8493719 1.15062815,24.0000001 2.56999996,24.0000001 L13.72,24.0000001 C15.1370949,23.994518 16.284518,22.8470949 16.29,21.43 L16.29,16.29 C16.29,15.8150351 15.9049649,15.43 15.43,15.43 Z" id="path-1"></path>
    </defs>
    <g id="icon/stroke/sign-out" stroke="none" stroke-width="1" fill="none" fill-rule="evenodd">
        <mask id="mask-2" fill="white">
            <use xlink:href="#path-1"></use>
        </mask>
        <use fill="#000000" fill-rule="nonzero" xlink:href="#path-1"></use>
        <g id="color-/-grayscale-/-primary-text" mask="url(#mask-2)" fill="#333333">
            <rect id="color/header" x="0" y="0" width="24" height="24"></rect>
        </g>
    </g>
</svg>