<?xml version="1.0" encoding="UTF-8"?>
<svg width="24px" height="24px" viewBox="0 0 24 24" version="1.1" xmlns="http://www.w3.org/2000/svg" xmlns:xlink="http://www.w3.org/1999/xlink">
    <!-- Generator: Sketch 51.3 (57544) - http://www.bohemiancoding.com/sketch -->
    <title>icon/stroke/visualization</title>
    <desc>Created with Sketch.</desc>
    <defs>
        <path d="M23.8510878,11.5672515 C23.8076258,11.4803743 22.7647252,9.41553215 20.8141755,7.33492396 C19.6552515,6.09871343 18.4122573,5.11036254 17.1197661,4.39723973 C15.4703626,3.48725143 13.7399766,3.02587131 11.9766082,3.02587131 C10.2132398,3.02587131 8.48285379,3.48725143 6.83345027,4.39728652 C5.54091225,5.11040933 4.2979181,6.09876021 3.1390409,7.33497074 C1.1884444,9.41557894 0.145590594,11.4803743 0.102128605,11.5672515 C-0.0340585297,11.8396257 -0.0340585297,12.1602807 0.102128605,12.4327018 C0.14554381,12.5196257 1.1884444,14.5844211 3.1390409,16.6650293 C4.29801166,17.9012398 5.54095904,18.8896375 6.83345027,19.6027135 C8.48285379,20.5127486 10.2132398,20.9741755 11.9766082,20.9741755 C13.7399766,20.9741755 15.4703158,20.5127486 17.1197661,19.6027135 C18.4122573,18.8895907 19.6552983,17.901193 20.8141755,16.6650293 C22.7647252,14.5844211 23.807579,12.5196257 23.8510878,12.4327018 C23.9872749,12.1602807 23.9872749,11.8396725 23.8510878,11.5672515 Z M11.9766082,19.0389708 C9.36313449,19.0389708 6.87625729,17.8071579 4.58502921,15.3778714 C3.31939178,14.035883 2.46133329,12.6740585 2.07157891,11.9999532 C2.99349704,10.4060819 6.54180115,4.96107599 11.9766082,4.96102921 C14.5901287,4.96102921 17.0770059,6.1927953 19.3682339,8.62212864 C20.6340585,9.96435087 21.4921638,11.3263626 21.8816375,12.0000468 C20.9597661,13.5939649 17.4114152,19.0389708 11.9766082,19.0389708 Z M11.9766082,8.03003507 C9.78755555,8.03003507 8.00654969,9.81099414 8.00654969,12.0000936 C8.00654969,14.189193 9.78750876,15.9701521 11.9766082,15.9701521 C14.1657076,15.9701521 15.9466667,14.189193 15.9466667,12.0000936 C15.9466667,9.81099414 14.1657076,8.03003507 11.9766082,8.03003507 Z M11.9766082,14.0348538 C10.8545965,14.0348538 9.94175438,13.1220585 9.94175438,12 C9.94175438,10.8779883 10.8545965,9.96514619 11.9766082,9.96514619 C13.0986667,9.96514619 14.011462,10.8779883 14.011462,12 C14.011462,13.1220117 13.0986667,14.0348538 11.9766082,14.0348538 Z" id="path-1"></path>
    </defs>
    <g id="icon/stroke/visualization" stroke="none" stroke-width="1" fill="none" fill-rule="evenodd">
        <mask id="mask-2" fill="white">
            <use xlink:href="#path-1"></use>
        </mask>
        <use id="visualization" fill="#000000" fill-rule="nonzero" xlink:href="#path-1"></use>
        <g id="color-/-grayscale-/-primary-text" mask="url(#mask-2)" fill="#333333">
            <rect id="color/header" x="0" y="0" width="24" height="24"></rect>
        </g>
    </g>
</svg>